# xmcd CD database file
#
# Track frame offsets:
#	150
#	27355
#	55495
#	70480
#	91792
#	119332
#	135295
#	155340
#	185442
#	213317
#	239202
#	255940
#	273667
#
# Disc length: 3829 seconds
#
# Revision: 2
# Processed by: cddbd v1.5.1PL0 Copyright (c) Steve Scherf et al.
# Submitted via: CDex 1.51
#
DISCID=ba0ef30d
DTITLE=Jimmy Dawkins - Tribute To Orange
DYEAR=1993
DGENRE=Blues
TTITLE0=All For Business
TTITLE1=You've Got  To Keep On Trying
TTITLE2=Ain't Never Had Nothing
TTITLE3=Born In Poverty
TTITLE4=Marcelle Morgantini's Cassoulet
TTITLE5=Your Love
TTITLE6=Tribute To Orange
TTITLE7=Mississippi Bound
TTITLE8=Life Is A Mean Mistreater
TTITLE9=Mean Atlantic Ocean
TTITLE10=It Serves You Right To Suffer
TTITLE11=Marcelle Jacques Et Luc
TTITLE12=Ode To Billy Joe
EXTD=YEAR: 1993
EXTT0=
EXTT1=
EXTT2=
EXTT3=
EXTT4=
EXTT5=
EXTT6=
EXTT7=
EXTT8=
EXTT9=
EXTT10=
EXTT11=
EXTT12=
PLAYORDER=
